<svg height="277.063" viewBox="0 0 300.022 230.178" width="360.929" xmlns="http://www.w3.org/2000/svg"><g transform="translate(42.737 -10.557)"><path d="M-39.63 240.405c-1.272-.42-2.223-.9-2.833-1.432-.42-.366-.397-.461.354-1.395l.805-1.002 1.459.768c2.324 1.222 4.58.909 4.58-.637 0-.522-1.478-1.304-3.307-1.752-2.611-.638-3.837-1.896-3.837-3.935 0-1.378.9-2.678 2.383-3.445.984-.509 1.485-.595 2.909-.503 1.632.106 3.703.87 4.1 1.512.133.216-.3 1.042-1.096 2.089-.043.056-.669-.152-1.392-.463-1.552-.668-2.999-.729-3.578-.15-1.007 1.007-.328 1.691 2.468 2.487 1.444.412 2.462.889 3.133 1.47.945.816.995.938.995 2.457 0 1.803-.511 2.74-1.958 3.587-1.074.63-3.777.808-5.186.344zm26.667-.015c-2.78-.91-4.58-3.467-4.57-6.498.014-3.972 2.587-6.607 6.687-6.848 1.597-.094 1.986-.014 3.476.72 3.2 1.575 4.584 4.81 3.544 8.282-.399 1.33-2.09 3.252-3.492 3.968-1.366.698-4.103.88-5.645.376z" fill="#010081"/><path d="M-9.287 237.838c1.177-.327 2.218-1.494 2.6-2.914.707-2.623-1.323-5.28-4.034-5.28-1.258 0-2.78 1.014-3.377 2.25-.95 1.963-.521 4.01 1.096 5.23 1.298.978 2.164 1.144 3.715.714z" fill="#fff"/><path d="M27.176 240.277c-1.666-.55-2.914-1.295-2.902-1.733.004-.165.37-.698.812-1.185.737-.81.842-.85 1.258-.473 1.165 1.054 3.694 1.553 4.819.951.704-.376.657-1.472-.084-1.947-.327-.21-1.131-.514-1.786-.676-1.78-.44-3.514-1.297-4.027-1.99-1.315-1.778-.512-4.535 1.646-5.65 1.006-.52 1.461-.595 2.94-.482 1.753.135 4.204 1.043 4.204 1.558 0 .394-1.064 2.053-1.316 2.053-.118 0-.733-.236-1.367-.523-1.472-.668-2.917-.69-3.494-.051-.917 1.013-.296 1.602 2.581 2.445 1.555.455 2.355.861 3.11 1.579.93.885 1.015 1.085 1.015 2.38 0 2.523-1.577 3.975-4.498 4.141-.904.051-2.007-.1-2.911-.397zm33.478.075c-2.739-1.045-3.315-2.546-3.315-8.638v-4.45h2.91l.002 4.299c0 3.74.065 4.405.497 5.114 1.027 1.683 3.486 1.838 4.636.291.502-.676.562-1.166.638-5.225l.083-4.48h2.918l-.087 4.83c-.083 4.582-.121 4.888-.752 6.015-.904 1.613-2.417 2.43-4.726 2.552-1.134.06-2.124-.05-2.804-.308zm42.193.015c-2.762-.895-4.492-3.394-4.492-6.489 0-4.263 3.207-7.161 7.541-6.813 3.87.31 6.487 3.107 6.47 6.912-.01 2.428-1.563 4.88-3.83 6.05-1.358.699-4.077.862-5.689.34z" fill="#010081"/><path d="M107.085 237.621c1.437-.763 2.112-1.96 2.112-3.743 0-1.782-.675-2.98-2.112-3.743-3.832-2.037-7.667 3.052-4.836 6.416 1.293 1.536 3.175 1.953 4.836 1.07z" fill="#fff"/><path d="M171.373 240.51a7 7 0 0 1-3.078-1.913c-1.417-1.506-1.805-2.521-1.805-4.719 0-2.198.388-3.212 1.805-4.72 1.464-1.557 2.656-2.02 5.196-2.02 2.664 0 3.887.518 5.405 2.292 3.859 4.508.491 11.406-5.518 11.304-.738-.012-1.64-.113-2.005-.224z" fill="#010081"/><path d="M175.21 237.582c2.905-1.406 2.983-5.775.132-7.377-2.686-1.51-5.82.384-5.82 3.518 0 1.84.68 3.05 2.126 3.793 1.43.733 2.157.747 3.563.066z" fill="#fff"/><path d="M-29.709 233.878v-6.615h3.422c3.589 0 4.51.19 5.533 1.142.985.917 1.402 1.97 1.402 3.537 0 2.872-1.76 4.35-5.396 4.534l-2.05.104v3.913h-2.91z" fill="#010081"/><path d="M-22.913 233.303c.78-.733.82-2.128.083-2.865-.42-.42-.882-.529-2.249-.529h-1.72v3.969h1.637c1.316 0 1.757-.113 2.249-.575z" fill="#fff"/><path d="M-.87 233.86v-6.633l4.188.084c3.945.08 4.243.122 5.137.736 1.175.806 1.788 2.042 1.788 3.604 0 1.478-.496 2.472-1.747 3.504l-.965.795 1.489 2.16c.818 1.188 1.488 2.21 1.488 2.271 0 .062-.744.109-1.654.106L7.2 240.48l-1.39-2.111-1.39-2.11H2.04v4.233h-2.91v-6.633z" fill="#010081"/><path d="M6.72 233.038c.78-.732.795-1.88.034-2.59-.48-.447-.932-.539-2.646-.539H2.04v3.704h2.034c1.723 0 2.126-.087 2.645-.575z" fill="#fff"/><path d="M16.064 235.2v-5.29h-3.969v-2.647h10.848v2.646h-3.969v10.584h-2.91zm25.93 5.094c0-.109 1.24-3.115 2.755-6.68l2.755-6.483h2.74l2.587 6.085c3.443 8.099 3.287 7.321 1.45 7.224l-1.516-.08-.53-1.397-.53-1.397-2.909.074-2.909.074-.527 1.39-.527 1.389h-1.42c-.78 0-1.42-.09-1.42-.199z" fill="#010081"/><path d="M50.462 234.738c.003-.35-1.452-3.769-1.604-3.77-.081 0-.52.893-.976 1.984l-.828 1.984h1.703c.936 0 1.704-.089 1.705-.198z" fill="#fff"/><path d="M75.066 235.212v-5.28l-2.033-.078-2.033-.077.024-.86c.014-.473.036-1.039.05-1.257.02-.34.825-.397 5.552-.397h5.529l-.039 1.257-.038 1.257-2.051.077-2.05.077v10.562h-2.91v-5.281zm9.26-1.334v-6.615h2.892l.075 2.58.076 2.58 2.58.075c1.96.058 2.583-.006 2.592-.264.007-.187.016-1.382.02-2.656l.009-2.315h3.134v13.23h-3.175V235.2h-5.292v5.292h-2.91v-6.615zm30.692-.018v-6.633l4.215.084c3.768.076 4.292.143 4.945.63 1.16.867 1.736 1.817 1.88 3.097.187 1.658-.313 2.94-1.563 4.01l-1.067.914 1.483 2.154c.817 1.185 1.484 2.204 1.484 2.265 0 .061-.744.108-1.653.103l-1.654-.01-1.43-2.107c-1.42-2.091-1.44-2.108-2.58-2.108h-1.15v4.233h-2.91v-6.633z" fill="#010081"/><path d="M122.693 232.89c.41-.521.526-.939.415-1.493-.238-1.186-.837-1.47-3.129-1.48l-2.05-.007v3.704h2.097c1.97 0 2.132-.044 2.667-.724z" fill="#fff"/><path d="M129.041 233.878v-6.615h2.91v13.23h-2.91zm9.26 1.323v-5.292h-3.968v-2.646h10.98l-.092 1.323-.091 1.323h-3.918v10.584h-2.91zm12.958 2.58l-.007-2.712-2.464-3.837-2.463-3.836 1.449-.08c.797-.045 1.589-.027 1.76.039.172.065.938 1.203 1.702 2.527.765 1.325 1.472 2.409 1.572 2.409.1 0 .842-1.102 1.649-2.448l1.467-2.447 1.64-.08c.902-.042 1.64-.015 1.64.062s-1.131 1.906-2.514 4.065l-2.513 3.925v5.125h-2.91l-.008-2.712zm32.022-3.903v-6.615h10.054v2.646h-7.144v2.91h6.38l-.082 1.257-.08 1.257-3.109.075-3.109.074v5.01h-2.91zm18.256 0v-6.615h2.91v13.23h-2.91zm6.35 0v-6.615l1.389.003c1.237.003 1.447.089 1.918.778 1.391 2.034 5.23 6.892 5.445 6.892.137 0 .244-1.677.244-3.837v-3.836h2.91v13.257l-1.372-.08-1.373-.08-3.06-4.025-3.058-4.025-.073 4.091-.073 4.091h-2.897v-6.615zm15.081 0v-6.615l3.506.003c3.123.002 3.652.071 4.843.626 4.15 1.932 5.156 7.304 1.968 10.506-1.699 1.706-3.008 2.095-7.057 2.095h-3.26v-6.615z" fill="#010081"/><path d="M230.103 237.383c1.218-.614 1.922-1.885 1.922-3.47 0-2.677-1.442-4.001-4.36-4.003h-1.786v7.937h1.653c1.048-.001 1.99-.17 2.57-.464z" fill="#fff"/><path d="M237.961 240.316c-.097-.097-.176-3.073-.176-6.614v-6.439h3.175v13.23h-1.411c-.776 0-1.49-.08-1.588-.177zm5.783-1.345c.358-.837 1.639-3.843 2.845-6.68l2.192-5.16h1.314c1.237 0 1.342.055 1.782.926.512 1.013 5.222 12.123 5.222 12.316 0 .066-.661.12-1.47.12h-1.47l-.647-1.465-.647-1.464-2.808.075-2.809.075-.564 1.39-.565 1.388h-3.027z" fill="#010081"/><path d="M251.808 234.821c0-.23-1.419-3.464-1.623-3.698-.116-.134-.32.042-.457.397-.136.35-.496 1.263-.8 2.027l-.552 1.39h1.716c.944 0 1.716-.052 1.716-.116z" fill="#fff"/><path d="M15.403 213.061c-18.755-.556-33.597-3.789-46.595-10.15-3.919-1.917-10.1-5.694-10.885-6.65-.329-.4.118-1.272 2.905-5.668 3.86-6.089 9.304-9.103 16.441-9.103 4.552 0 7.428.542 15.38 2.895 12.162 3.6 17.647 4.37 29.765 4.177 10.427-.166 15.143-.774 19.907-2.567 5.267-1.983 8.15-7.132 7.82-13.97-.293-6.1-3.363-9.023-12.117-11.538-5.488-1.576-8.313-2.11-23.944-4.527-12.672-1.959-20.797-3.915-27.605-6.647-6.173-2.477-9.753-4.585-12.975-7.641-4.404-4.176-7.052-9.62-8.09-16.624-.937-6.33-.78-13.706.42-19.752 2.505-12.62 10.23-20.972 23.38-25.28 4.356-1.427 8.016-2.205 14.55-3.096 4.13-.562 5.054-.579 37.641-.668 31.426-.087 33.417-.065 33.582.364.188.489-.202 3.125-.875 5.92-.554 2.3-2.9 7.15-4.443 9.188-2.819 3.72-7.146 6.987-11.205 8.46-4.115 1.494-3.572 1.46-26.521 1.662-22.267.196-23.308.25-28.178 1.464-2.652.661-5.75 2.338-7.106 3.847-1.942 2.16-2.405 3.68-2.413 7.923-.006 3.462.02 3.625.82 5.292.933 1.944 2.651 3.85 4.365 4.84 3.617 2.09 11.547 4.003 24.31 5.863 17.488 2.548 25.192 4.2 32.667 7.008 6.656 2.5 9.948 4.355 13.21 7.442 7.818 7.402 10.986 19.293 8.981 33.717-1.18 8.499-4.012 14.715-9.203 20.205-8.006 8.468-20.962 12.594-42.48 13.528-3.274.142-6.668.236-7.54.208-.874-.028-2.66-.083-3.97-.122zm67.071-.244c0-.133 1.081-2.98 2.402-6.326 2.283-5.78 7.078-17.992 9.766-24.868 1.44-3.686 9.033-22.996 13.421-34.131 1.663-4.22 3.364-8.566 3.78-9.658.416-1.091 1.463-3.77 2.326-5.953.863-2.183 3.743-9.505 6.401-16.272l7.328-18.653c1.372-3.492 3.262-8.314 4.199-10.716s2.211-5.615 2.832-7.143l1.129-2.778 12.729-.07c9.985-.053 12.785.004 12.991.266.144.183 1.047 2.357 2.006 4.83.96 2.475 2.863 7.356 4.231 10.849l8.91 22.754a61044.94 61044.94 0 0 0 9.589 24.474c3.061 7.806 4.803 12.255 12.067 30.824a50970.4 50970.4 0 0 0 9.933 25.355c3.584 9.143 6.517 16.811 6.517 17.04 0 .374-.679.4-6.416.25-9.17-.239-12.885-.879-17.298-2.98-5.447-2.592-9.243-7.652-13.875-18.499-.497-1.164-1.024-2.204-1.17-2.311-.147-.108-12.577-.167-27.622-.133l-27.355.063-1.885 4.233c-4.3 9.657-7.783 14.134-12.98 16.685-2.637 1.295-4.257 1.762-8.213 2.37-3.05.469-15.743.87-15.743.498z" fill="#010081"/><path d="M166.193 164.397c.23-.089.419-.318.419-.51s-3.461-9.139-7.692-19.882a8594.255 8594.255 0 0 1-8.634-21.98c-.906-2.353-1.32-2.828-1.845-2.116-.134.182-.918 2.057-1.742 4.167a7558.76 7558.76 0 0 1-10.52 26.723c-5.432 13.745-5.239 13.194-4.74 13.509.42.266 34.07.351 34.754.089z" fill="#fff"/><path d="M229.987 212.723c-.112-.181-.12-28.625-.018-63.208.156-52.485.248-63.151.558-64.531.83-3.696 2.845-6.262 6.152-7.828l1.767-.837 9.33-.082 9.331-.082-.07 58.423-.07 58.422-.714 2.586c-3.014 10.918-10.673 16.718-22.86 17.31-2.41.118-3.253.075-3.406-.173z" fill="#010081"/><path d="M203.389 71.342c0 .298 1.92-1.272 3.924-3.21 5.132-4.965 7.686-10.561 7.372-16.155-.263-4.688-2.058-8.486-8.504-17.992-5.99-8.834-9.887-14.413-10.224-15.093-.208-.421.761.977 4.448 5.411 2.802 3.37 8.948 9.49 11.397 11.484 2.994 2.44 5.695 4.27 8.24 5.584 3.76 1.943 5.81 2.57 8.916 2.73 2.37.121 2.972.055 5.154-.571 2.758-.792 5.756-2.207 8.412-3.973 4.215-2.802 9.687-8.081 13.289-12.821.707-.931 1.286-1.53 1.286-1.33 0 .692-3.779 7.28-6.785 11.826-3.652 5.525-7.175 9.807-12.137 14.754-13.445 13.403-30.07 22.43-47.885 25.999-2.867.574-4.92.9-4.498.713.146-.065 1.66-.475 3.363-.91 3.899-.998 7.099-2.223 7.825-2.997" fill="#010081" stroke="#010081" stroke-width=".371"/><path d="M196.982 74.791c1.488-1.583 1.783-4.341.736-6.887-.961-2.338-2.05-3.998-6.335-9.664-5.57-7.366-6.664-9.929-6.454-15.127.074-1.836.29-3.282.635-4.266.612-1.743 2.205-4.47 2.601-4.454.151.006.538.571.858 1.257.321.685 1.4 2.615 2.396 4.288 1.837 3.085 2.452 4.027 8.217 12.61 5.017 7.47 6.036 10.11 5.38 13.934-.178 1.043-.618 2.536-.976 3.319-.358.782-.651 1.475-.651 1.54" fill="#046a38"/><path d="M196.278 75.298a83.8 83.8 0 0 0 3.205-1.501c.99-.49 1.973-1 2.873-1.637.36-.254.704-.527 1.033-.818" fill="none" stroke="#000" stroke-width=".265"/><path d="M210.998 63.06c.028-.293.049-1.21.046-2.037-.004-1.319-.026-1.623-.18-2.472-.535-2.951-1.688-5.56-3.705-8.379a190.924 190.924 0 0 0-1.857-2.513c-4.58-6.108-7.375-9.976-9.365-12.962-4.162-6.246-5.798-9.633-6.485-13.43-.157-.872-.175-1.137-.178-2.64-.003-1.445.017-1.783.146-2.505.316-1.77.725-3.027 1.496-4.603l.47-.962.982 1.93c1.315 2.588 2.293 4.3 3.601 6.307.347.533.742 1.18.878 1.439.347.663 2.025 3.218 5.24 7.983 6.158 9.123 7.508 11.186 8.888 13.586 2.03 3.53 2.979 5.943 3.392 8.63.173 1.125.207 3.416.065 4.444-.291 2.118-.883 4.021-1.86 5.98-.421.844-1.229 2.234-1.494 2.572l-.131.167z" fill="#ff671f"/><circle cx="229.838" cy="35.799" fill="#010081" fill-rule="evenodd" r="4.605"/></g></svg>